<svg xmlns="http://www.w3.org/2000/svg" xmlns:xlink="http://www.w3.org/1999/xlink" viewBox="0 0 1080 1080" width="1080" height="1080" preserveAspectRatio="xMidYMid meet" style="width: 100%; height: 100%; transform: translate3d(0px, 0px, 0px); content-visibility: visible;"><defs><clipPath id="__lottie_element_2"><rect width="1080" height="1080" x="0" y="0"></rect></clipPath><g id="__lottie_element_5"><g clip-path="url(#__lottie_element_6)" transform="matrix(1,0,0,1,0,0)" opacity="1" style="display: block;"><g transform="matrix(0.9100000262260437,0.0000021123837541381363,-0.0000021123837541381363,0.9100000262260437,551.9996948242188,550.0001220703125)" opacity="1" style="display: block;"><path fill="rgb(88,204,2)" fill-opacity="1" d=" M-12.883000373840332,-238.80799865722656 C9.609999656677246,-238.80799865722656 26.524999618530273,-242.63600158691406 42.66899871826172,-248.39100646972656 C57.40700149536133,-253.64500427246094 71.50199890136719,-258.6700134277344 88.61299896240234,-258.6700134277344 C111.22799682617188,-258.6700134277344 127.78500366210938,-248.66799926757812 139.50100708007812,-235.25599670410156 C147.2259979248047,-226.41200256347656 152.84800720214844,-216.0850067138672 156.71200561523438,-206.16400146484375 C161.85299682617188,-192.96400451660156 163.88600158691406,-180.48399353027344 163.6320037841797,-173.17100524902344 C163.6320037841797,-173.17100524902344 163.6320037841797,-22.582000732421875 163.6320037841797,-22.582000732421875 C163.6320037841797,124.36599731445312 44.11600112915039,164.04400634765625 -12.883000373840332,165.51499938964844 C-69.88200378417969,164.04400634765625 -189.39599609375,124.36599731445312 -189.39599609375,-22.582000732421875 C-189.39599609375,-22.582000732421875 -189.39599609375,-173.17100524902344 -189.39599609375,-173.17100524902344 C-189.39599609375,-227 -90,-238.80799865722656 -12.883000373840332,-238.80799865722656z M-68.43399810791016,-248.39100646972656 C-52.28900146484375,-242.63600158691406 -35.375999450683594,-238.80799865722656 -12.883000373840332,-238.80799865722656 C44.5,-238.80799865722656 163.6320037841797,-217.5 163.6320037841797,-173.17100524902344 C163.6320037841797,-173.17100524902344 163.6320037841797,-22.582000732421875 163.6320037841797,-22.582000732421875 C163.6320037841797,124.36599731445312 44.11600112915039,164.04400634765625 -12.883000373840332,165.51499938964844 C-69.88200378417969,164.04400634765625 -189.39599609375,124.36599731445312 -189.39599609375,-22.582000732421875 C-189.39599609375,-22.582000732421875 -189.39599609375,-173.17100524902344 -189.39599609375,-173.17100524902344 C-189.7050018310547,-182.0500030517578 -186.64300537109375,-198.54600524902344 -178.73899841308594,-214.697998046875 C-173.50900268554688,-225.38499450683594 -166.15899658203125,-235.92100524902344 -156.26400756835938,-244 C-145.4980010986328,-252.78900146484375 -131.718994140625,-258.6700134277344 -114.37799835205078,-258.6700134277344 C-97.26699829101562,-258.6700134277344 -83.1719970703125,-253.64500427246094 -68.43399810791016,-248.39100646972656z"></path><path fill="rgb(88,204,2)" fill-opacity="1" d=" M-68.43399810791016,-248.39100646972656 C-52.28900146484375,-242.63600158691406 -35.375999450683594,-238.80799865722656 -12.883000373840332,-238.80799865722656 C44.5,-238.80799865722656 163.6320037841797,-217.5 163.6320037841797,-173.17100524902344 C163.6320037841797,-173.17100524902344 163.6320037841797,-22.582000732421875 163.6320037841797,-22.582000732421875 C163.6320037841797,124.36599731445312 44.11600112915039,164.04400634765625 -12.883000373840332,165.51499938964844 C-69.88200378417969,164.04400634765625 -189.39599609375,124.36599731445312 -189.39599609375,-22.582000732421875 C-189.39599609375,-22.582000732421875 -189.39599609375,-173.17100524902344 -189.39599609375,-173.17100524902344 C-189.7050018310547,-182.0500030517578 -186.64300537109375,-198.54600524902344 -178.73899841308594,-214.697998046875 C-173.50900268554688,-225.38499450683594 -166.15899658203125,-235.92100524902344 -156.26400756835938,-244 C-145.4980010986328,-252.78900146484375 -131.718994140625,-258.6700134277344 -114.37799835205078,-258.6700134277344 C-97.26699829101562,-258.6700134277344 -83.1719970703125,-253.64500427246094 -68.43399810791016,-248.39100646972656z"></path></g></g></g><clipPath id="__lottie_element_6"><path d="M0,0 L1080,0 L1080,1080 L0,1080z"></path></clipPath><mask id="__lottie_element_5_1" mask-type="alpha"><use xlink:href="#__lottie_element_5"></use></mask><g id="__lottie_element_16"><g clip-path="url(#__lottie_element_20)" transform="matrix(0.9999989867210388,0,0,0.9999989867210388,6.523578643798828,-6.653419494628906)" opacity="1" style="display: block;"><g transform="matrix(0.9100000262260437,0,0,0.9100000262260437,546,556)" opacity="1" style="display: block;"><g opacity="1" transform="matrix(1,0,0,1,0,0)"><path fill="rgb(75,75,75)" fill-opacity="1" d=" M-59.64699935913086,11.144000053405762 C-59.64699935913086,-17.575000762939453 -70.05899810791016,-28.555999755859375 -87.01200103759766,-28.555999755859375 C-110.23899841308594,-28.555999755859375 -106.9010009765625,-8.48799991607666 -106.9010009765625,2.8970000743865967 C-106.9010009765625,12.210000038146973 -104.98699951171875,19.29800033569336 -101.96800231933594,24.582000732421875 C-96.31500244140625,34.47600173950195 -86.78700256347656,38.04399871826172 -78.69499969482422,38.04399871826172 C-71.83200073242188,38.04399871826172 -66.73600006103516,35.72999954223633 -63.54999923706055,30.395000457763672 C-60.972999572753906,26.079999923706055 -59.64699935913086,19.78700065612793 -59.64699935913086,11.144000053405762z"></path></g><g opacity="1" transform="matrix(1,0,0,1,0,0)"><path fill="rgb(75,75,75)" fill-opacity="1" d=" M36.18199920654297,11.144000053405762 C36.18199920654297,-17.575000762939453 46.59299850463867,-28.555999755859375 63.54600143432617,-28.555999755859375 C86.77300262451172,-28.555999755859375 83.43599700927734,-8.48799991607666 83.43599700927734,2.8970000743865967 C83.43599700927734,11.722000122070312 81.71700286865234,18.548999786376953 78.96800231933594,23.73699951171875 C73.38400268554688,34.27299880981445 63.54899978637695,38.04399871826172 55.22999954223633,38.04399871826172 C48.72700119018555,38.04399871826172 43.810001373291016,35.965999603271484 40.60200119018555,31.208999633789062 C37.68600082397461,26.885000228881836 36.18199920654297,20.347000122070312 36.18199920654297,11.144000053405762z"></path></g></g></g></g><clipPath id="__lottie_element_20"><path d="M0,0 L1080,0 L1080,1080 L0,1080z"></path></clipPath><mask id="__lottie_element_16_1" mask-type="alpha"><use xlink:href="#__lottie_element_16"></use></mask><g id="__lottie_element_5"><g clip-path="url(#__lottie_element_6)" transform="matrix(1,0,0,1,0,0)" opacity="1" style="display: block;"><g transform="matrix(0.9100000262260437,0.0000021123837541381363,-0.0000021123837541381363,0.9100000262260437,551.9996948242188,550.0001220703125)" opacity="1" style="display: block;"><path fill="rgb(88,204,2)" fill-opacity="1" d=" M-12.883000373840332,-238.80799865722656 C9.609999656677246,-238.80799865722656 26.524999618530273,-242.63600158691406 42.66899871826172,-248.39100646972656 C57.40700149536133,-253.64500427246094 71.50199890136719,-258.6700134277344 88.61299896240234,-258.6700134277344 C111.22799682617188,-258.6700134277344 127.78500366210938,-248.66799926757812 139.50100708007812,-235.25599670410156 C147.2259979248047,-226.41200256347656 152.84800720214844,-216.0850067138672 156.71200561523438,-206.16400146484375 C161.85299682617188,-192.96400451660156 163.88600158691406,-180.48399353027344 163.6320037841797,-173.17100524902344 C163.6320037841797,-173.17100524902344 163.6320037841797,-22.582000732421875 163.6320037841797,-22.582000732421875 C163.6320037841797,124.36599731445312 44.11600112915039,164.04400634765625 -12.883000373840332,165.51499938964844 C-69.88200378417969,164.04400634765625 -189.39599609375,124.36599731445312 -189.39599609375,-22.582000732421875 C-189.39599609375,-22.582000732421875 -189.39599609375,-173.17100524902344 -189.39599609375,-173.17100524902344 C-189.39599609375,-227 -90,-238.80799865722656 -12.883000373840332,-238.80799865722656z M-68.43399810791016,-248.39100646972656 C-52.28900146484375,-242.63600158691406 -35.375999450683594,-238.80799865722656 -12.883000373840332,-238.80799865722656 C44.5,-238.80799865722656 163.6320037841797,-217.5 163.6320037841797,-173.17100524902344 C163.6320037841797,-173.17100524902344 163.6320037841797,-22.582000732421875 163.6320037841797,-22.582000732421875 C163.6320037841797,124.36599731445312 44.11600112915039,164.04400634765625 -12.883000373840332,165.51499938964844 C-69.88200378417969,164.04400634765625 -189.39599609375,124.36599731445312 -189.39599609375,-22.582000732421875 C-189.39599609375,-22.582000732421875 -189.39599609375,-173.17100524902344 -189.39599609375,-173.17100524902344 C-189.7050018310547,-182.0500030517578 -186.64300537109375,-198.54600524902344 -178.73899841308594,-214.697998046875 C-173.50900268554688,-225.38499450683594 -166.15899658203125,-235.92100524902344 -156.26400756835938,-244 C-145.4980010986328,-252.78900146484375 -131.718994140625,-258.6700134277344 -114.37799835205078,-258.6700134277344 C-97.26699829101562,-258.6700134277344 -83.1719970703125,-253.64500427246094 -68.43399810791016,-248.39100646972656z"></path><path fill="rgb(88,204,2)" fill-opacity="1" d=" M-68.43399810791016,-248.39100646972656 C-52.28900146484375,-242.63600158691406 -35.375999450683594,-238.80799865722656 -12.883000373840332,-238.80799865722656 C44.5,-238.80799865722656 163.6320037841797,-217.5 163.6320037841797,-173.17100524902344 C163.6320037841797,-173.17100524902344 163.6320037841797,-22.582000732421875 163.6320037841797,-22.582000732421875 C163.6320037841797,124.36599731445312 44.11600112915039,164.04400634765625 -12.883000373840332,165.51499938964844 C-69.88200378417969,164.04400634765625 -189.39599609375,124.36599731445312 -189.39599609375,-22.582000732421875 C-189.39599609375,-22.582000732421875 -189.39599609375,-173.17100524902344 -189.39599609375,-173.17100524902344 C-189.7050018310547,-182.0500030517578 -186.64300537109375,-198.54600524902344 -178.73899841308594,-214.697998046875 C-173.50900268554688,-225.38499450683594 -166.15899658203125,-235.92100524902344 -156.26400756835938,-244 C-145.4980010986328,-252.78900146484375 -131.718994140625,-258.6700134277344 -114.37799835205078,-258.6700134277344 C-97.26699829101562,-258.6700134277344 -83.1719970703125,-253.64500427246094 -68.43399810791016,-248.39100646972656z"></path></g></g></g><g id="__lottie_element_16"><g clip-path="url(#__lottie_element_20)" transform="matrix(0.9999989867210388,0,0,0.9999989867210388,6.523578643798828,-6.653419494628906)" opacity="1" style="display: block;"><g transform="matrix(0.9100000262260437,0,0,0.9100000262260437,546,556)" opacity="1" style="display: block;"><g opacity="1" transform="matrix(1,0,0,1,0,0)"><path fill="rgb(75,75,75)" fill-opacity="1" d=" M-59.64699935913086,11.144000053405762 C-59.64699935913086,-17.575000762939453 -70.05899810791016,-28.555999755859375 -87.01200103759766,-28.555999755859375 C-110.23899841308594,-28.555999755859375 -106.9010009765625,-8.48799991607666 -106.9010009765625,2.8970000743865967 C-106.9010009765625,12.210000038146973 -104.98699951171875,19.29800033569336 -101.96800231933594,24.582000732421875 C-96.31500244140625,34.47600173950195 -86.78700256347656,38.04399871826172 -78.69499969482422,38.04399871826172 C-71.83200073242188,38.04399871826172 -66.73600006103516,35.72999954223633 -63.54999923706055,30.395000457763672 C-60.972999572753906,26.079999923706055 -59.64699935913086,19.78700065612793 -59.64699935913086,11.144000053405762z"></path></g><g opacity="1" transform="matrix(1,0,0,1,0,0)"><path fill="rgb(75,75,75)" fill-opacity="1" d=" M36.18199920654297,11.144000053405762 C36.18199920654297,-17.575000762939453 46.59299850463867,-28.555999755859375 63.54600143432617,-28.555999755859375 C86.77300262451172,-28.555999755859375 83.43599700927734,-8.48799991607666 83.43599700927734,2.8970000743865967 C83.43599700927734,11.722000122070312 81.71700286865234,18.548999786376953 78.96800231933594,23.73699951171875 C73.38400268554688,34.27299880981445 63.54899978637695,38.04399871826172 55.22999954223633,38.04399871826172 C48.72700119018555,38.04399871826172 43.810001373291016,35.965999603271484 40.60200119018555,31.208999633789062 C37.68600082397461,26.885000228881836 36.18199920654297,20.347000122070312 36.18199920654297,11.144000053405762z"></path></g></g></g></g></defs><g clip-path="url(#__lottie_element_2)"><g transform="matrix(0.9100000262260437,0,0,0.9100000262260437,552,550)" opacity="0.3" style="display: block;"><path fill="#AFAFAF" fill-opacity="1" d=" M-10.402999877929688,-78.9219970703125 C101.64700317382812,-78.9219970703125 192.48199462890625,-8.196999549865723 192.48199462890625,79.0469970703125 C192.48199462890625,166.29100036621094 101.64700317382812,237.01699829101562 -10.402999877929688,237.01699829101562 C-122.4530029296875,237.01699829101562 -213.28799438476562,166.29100036621094 -213.28799438476562,79.0469970703125 C-213.28799438476562,-8.196999549865723 -122.4530029296875,-78.9219970703125 -10.402999877929688,-78.9219970703125z"></path></g><g transform="matrix(1,0,0,1,0,0)" opacity="1" style="display: block;"><g opacity="1" transform="matrix(1,0,0,1,677.6719970703125,537.677001953125)"><path stroke-linecap="round" stroke-linejoin="miter" fill-opacity="0" stroke-miterlimit="4" stroke="#F49000" stroke-opacity="1" stroke-width="54px" d=" M-66.5,143.5 C-66.5,143.5 -80.78199768066406,134.05499267578125 -80.78199768066406,134.05499267578125"></path></g><g opacity="1" transform="matrix(1,0,0,1,540.8619995117188,538.677001953125)"><path stroke-linecap="round" stroke-linejoin="miter" fill-opacity="0" stroke-miterlimit="4" stroke="#F49000" stroke-opacity="1" stroke-width="54px" d=" M-68.5,142.5 C-68.5,142.5 -45,107.5 -45,107.5"></path></g></g><g transform="matrix(0.9100000262260437,0,0,0.9100000262260437,552.0003051757812,550.0000610351562)" opacity="1" style="display: block;"><path fill="#58CC02" fill-opacity="1" d=" M-174.95358276367188,-91.53627014160156 C-189.0015411376953,-63.57843780517578 -232.3878173828125,10.385753631591797 -243.4117889404297,33.21393585205078 C-249.18841552734375,46.042381286621094 -243.9538116455078,60.72462844848633 -227.03414916992188,65.2420654296875 C-212.93624877929688,72.4543228149414 -197.19810485839844,73.62340545654297 -182.84661865234375,69.16539001464844 C-168.7371368408203,64.37976837158203 -159.79083251953125,53.58822250366211 -154.01629638671875,43.352699279785156 C-148.08238220214844,32.81767654418945 -148.8514862060547,22.560062408447266 -148.47451782226562,20.182584762573242 C-147.88340759277344,17.946674346923828 -167.72474670410156,-79.8595962524414 -174.95358276367188,-91.53627014160156z"></path><path stroke-linecap="butt" stroke-linejoin="miter" fill-opacity="0" stroke-miterlimit="4" stroke="#FF0000" stroke-opacity="1" stroke-width="0px" d=" M-174.95358276367188,-91.53627014160156 C-189.0015411376953,-63.57843780517578 -232.3878173828125,10.385753631591797 -243.4117889404297,33.21393585205078 C-249.18841552734375,46.042381286621094 -243.9538116455078,60.72462844848633 -227.03414916992188,65.2420654296875 C-212.93624877929688,72.4543228149414 -197.19810485839844,73.62340545654297 -182.84661865234375,69.16539001464844 C-168.7371368408203,64.37976837158203 -159.79083251953125,53.58822250366211 -154.01629638671875,43.352699279785156 C-148.08238220214844,32.81767654418945 -148.8514862060547,22.560062408447266 -148.47451782226562,20.182584762573242 C-147.88340759277344,17.946674346923828 -167.72474670410156,-79.8595962524414 -174.95358276367188,-91.53627014160156z"></path></g><g transform="matrix(0.9100000262260437,0,0,0.9100000262260437,552.0003662109375,549.9996948242188)" opacity="1" style="display: block;"><path fill="#58CC02" fill-opacity="1" d=" M129.7871551513672,42.345088958740234 C131.85455322265625,46.90632247924805 136.01779174804688,53.32839584350586 142.22808837890625,59.196624755859375 C150.908935546875,67.39922332763672 163.58935546875,74.5188980102539 180.13302612304688,73.9612045288086 C215.609130859375,72.76541137695312 220.99415588378906,52.899139404296875 220.6466827392578,42.586612701416016 C220.1763153076172,28.630172729492188 179.0880126953125,-41.451053619384766 158.47085571289062,-78.65743255615234 C158.47085571289062,-78.65743255615234 151.6623077392578,-49.93656539916992 151.6623077392578,-49.93656539916992"></path></g><g mask="url(#__lottie_element_5_1)" style="display: block;"><g transform="matrix(0.9100000262260437,0,0,0.9100000262260437,552,549.9993286132812)" opacity="1"><g opacity="1" transform="matrix(1,0,0,1,0,0)"><path fill="#58CC02" fill-opacity="1" d=" M392.85699462890625,-448.35150146484375 C392.85699462890625,-448.35150146484375 392.85699462890625,448.35150146484375 392.85699462890625,448.35150146484375 C392.85699462890625,448.35150146484375 -392.85699462890625,448.35150146484375 -392.85699462890625,448.35150146484375 C-392.85699462890625,448.35150146484375 -392.85699462890625,-448.35150146484375 -392.85699462890625,-448.35150146484375 C-392.85699462890625,-448.35150146484375 392.85699462890625,-448.35150146484375 392.85699462890625,-448.35150146484375z"></path></g><g opacity="1" transform="matrix(1,0,0,1,0,0)"><path fill="#89E219" fill-opacity="1" d=" M81.8550033569336,-134.01800537109375 C71.9260025024414,-134.01800537109375 40.1870002746582,-56.229000091552734 -10.28499984741211,-56.229000091552734 C-60.06800079345703,-56.229000091552734 -86.02100372314453,-131.6739959716797 -101.74199676513672,-131.6739959716797 C-116.08399963378906,-131.6739959716797 -112.63600158691406,-110.57099914550781 -111.9469985961914,-102.98600006103516 C-117.2249984741211,-107.33100128173828 -124.76599884033203,-115.00900268554688 -130.56399536132812,-116.8489990234375 C-136.36199951171875,-118.69000244140625 -140.35499572753906,-106.30000305175781 -140.35499572753906,-99.81900024414062 C-140.35499572753906,-97.1989974975586 -140.07899475097656,-95.94999694824219 -138.28599548339844,-89.33100128173828 C-143.94000244140625,-84.09100341796875 -171.906005859375,-74.43699645996094 -171.906005859375,-30.722000122070312 C-171.906005859375,15.541999816894531 -159.2169952392578,43.29800033569336 -141.65499877929688,59.26599884033203 C-125.55699920654297,73.9020004272461 -105.36499786376953,78.63400268554688 -87.09600067138672,78.63400268554688 C-56.5369987487793,78.63400268554688 -38.972999572753906,58.04100036621094 -35.11199951171875,47.74399948120117 C-35.11199951171875,47.74399948120117 11.640999794006348,47.74399948120117 11.640999794006348,47.74399948120117 C15.685999870300293,58.17900085449219 33.07099914550781,79.0469970703125 70.2490005493164,79.0469970703125 C104.40299987792969,79.0469970703125 124.73699951171875,59.4010009765625 136.06700134277344,34.04100036621094 C145.13999938964844,13.732999801635742 148.43899536132812,-10.239999771118164 148.43899536132812,-30.722000122070312 C148.43899536132812,-67.56900024414062 122.62899780273438,-86.98699951171875 116.33100128173828,-92.08899688720703 C116.9739990234375,-93.19200134277344 118.26100158691406,-93.14399719238281 118.26100158691406,-101.7490005493164 C118.26100158691406,-112.50499725341797 112.88300323486328,-120.15299987792969 108.60800170898438,-120.15299987792969 C104.33300018310547,-120.15299987792969 98.95600128173828,-114.43199920654297 92.75,-108.50199890136719 C92.75,-123.12000274658203 91.78399658203125,-134.01800537109375 81.8550033569336,-134.01800537109375z"></path></g></g></g><g transform="matrix(0.9100000262260437,-0.000005419431545305997,0.000005419431545305997,0.9100000262260437,551.999267578125,549.999267578125)" opacity="1" style="display: block;"><path fill="#89E219" fill-opacity="1" d=" M-28.465999603271484,129.71099853515625 C-28.465999603271484,125.322998046875 -59.42499923706055,119.4520034790039 -71.4229965209961,119.4520034790039 C-82.59300231933594,119.4520034790039 -67.56099700927734,138.55099487304688 -49.702999114990234,138.55099487304688 C-32.74100112915039,138.55099487304688 -28.465999603271484,132.61399841308594 -28.465999603271484,129.71099853515625z M4.998000144958496,129.71099853515625 C4.998000144958496,125.322998046875 35.957000732421875,119.4520034790039 47.95500183105469,119.4520034790039 C59.125,119.4520034790039 44.09400177001953,138.55099487304688 26.235000610351562,138.55099487304688 C9.27299976348877,138.55099487304688 4.998000144958496,132.61399841308594 4.998000144958496,129.71099853515625z M-26.260000228881836,147.26100158691406 C-31.89900016784668,146.281005859375 -34.53499984741211,147.79100036621094 -34.53499984741211,150.99000549316406 C-34.53499984741211,156.31700134277344 -20.951000213623047,159.0989990234375 -11.366999626159668,159.0989990234375 C-1.7829999923706055,159.0989990234375 10.972999572753906,154.718994140625 10.972999572753906,150.99000549316406 C10.972999572753906,148.0070037841797 8.369999885559082,147.031005859375 6.629000186920166,147.26100158691406 C-2.609999895095825,148.4810028076172 -21.226999282836914,148.13600158691406 -26.260000228881836,147.26100158691406z"></path></g><g transform="matrix(0.9100000262260437,0,0,0.9100000262260437,552,550)" opacity="1" style="display: none;"><g opacity="1" transform="matrix(1,0,0,1,0,0)"><path fill="#58CC02" fill-opacity="1" d=" M-120.18199920654297,-7.328999996185303 C-144.07899475097656,-1.628000020980835 -199.56399536132812,-0.414000004529953 -232.64999389648438,-17.08099937438965 C-248.90699768066406,-25.270999908447266 -271.5010070800781,-45.25600051879883 -279.90399169921875,-59.21699905395508 C-292.9840087890625,-83.04499816894531 -288.72100830078125,-96.81600189208984 -267.3290100097656,-101.625 C-242.38400268554688,-107.23200225830078 -176.89100646972656,-121.0770034790039 -110.5739974975586,-121.99600219726562"></path></g></g><g transform="matrix(0.9100000262260437,0,0,0.9100000262260437,545.1749877929688,639.1748046875)" opacity="1" style="display: block;"><g opacity="1" transform="matrix(1,0,0,1,0,0)"><path stroke-linecap="round" stroke-linejoin="round" fill-opacity="0" stroke="#4EB800" stroke-opacity="1" stroke-width="8px" d=" M-131.5,-90.61599731445312 C-133,-108.84700012207031 -120.43199920654297,-125.21399688720703 -88,-122.63099670410156 C-54.5,-119.96299743652344 -46,-98.1760025024414 -47,-88.83799743652344"></path></g><g opacity="1" transform="matrix(1,0,0,1,0,0)"><path stroke-linecap="round" stroke-linejoin="round" fill-opacity="0" stroke="#4EB800" stroke-opacity="1" stroke-width="8px" d=" M122.5,-90.61599731445312 C124,-108.84700012207031 111.43199920654297,-125.21399688720703 79,-122.63099670410156 C45.5,-119.96299743652344 37,-98.1760025024414 38,-88.83799743652344"></path></g></g><g transform="matrix(0.9100000262260437,0,0,0.9100000262260437,552,550)" opacity="1" style="display: none;"><path fill="#58CC02" fill-opacity="1" d=" M-161.99411010742188,-114.79634857177734 C-161.99411010742188,-114.79634857177734 -176.46920776367188,-109.38346099853516 -185.1819610595703,-107.68256378173828 C-193.89471435546875,-105.9816665649414 -201.1417999267578,-104.70780944824219 -209.20779418945312,-102.3391342163086 C-223.16917419433594,-98.27801513671875 -227.07635498046875,-92.4798355102539 -223.99537658691406,-70.85917663574219 C-220.65652465820312,-47.42751693725586 -208.8083953857422,-27.526660919189453 -198.8331298828125,-13.608872413635254 C-188.06015014648438,1.4209799766540527 -167.31961059570312,11.352611541748047 -145.3964080810547,14.89907169342041"></path><path stroke-linecap="round" stroke-linejoin="round" fill-opacity="0" stroke="#3DBE01" stroke-opacity="1" stroke-width="8px" d=" M-161.99411010742188,-114.79634857177734 C-161.99411010742188,-114.79634857177734 -176.46920776367188,-109.38346099853516 -185.1819610595703,-107.68256378173828 C-193.89471435546875,-105.9816665649414 -201.1417999267578,-104.70780944824219 -209.20779418945312,-102.3391342163086 C-223.16917419433594,-98.27801513671875 -227.07635498046875,-92.4798355102539 -223.99537658691406,-70.85917663574219 C-220.65652465820312,-47.42751693725586 -208.8083953857422,-27.526660919189453 -198.8331298828125,-13.608872413635254 C-188.06015014648438,1.4209799766540527 -167.31961059570312,11.352611541748047 -145.3964080810547,14.89907169342041"></path></g><g transform="matrix(0.9100000262260437,0,0,0.9100000262260437,552,549.9993286132812)" opacity="1" style="display: block;"><g opacity="1" transform="matrix(1,0,0,1,0,0)"><path fill="#FFFFFF" fill-opacity="1" d=" M-47.77399826049805,-3.5439999103546143 C-47.77399826049805,-37.02399826049805 -72.81700134277344,-65.34400177001953 -107.39600372314453,-65.34400177001953 C-132.83799743652344,-65.34400177001953 -147.5019989013672,-52.106998443603516 -147.5019989013672,-30.27199935913086 C-147.5019989013672,-15.401000022888184 -147.5019989013672,-19.530000686645508 -147.5019989013672,-8.678999900817871 C-147.5019989013672,16.10300064086914 -133.21200561523438,54.426998138427734 -92.96199798583984,58.917999267578125 C-59.902000427246094,62.60599899291992 -47.77399826049805,33.207000732421875 -47.77399826049805,19.444000244140625 C-47.77399826049805,19.444000244140625 -47.77399826049805,-3.5439999103546143 -47.77399826049805,-3.5439999103546143z"></path></g><g opacity="1" transform="matrix(1,0,0,1,0,0)"><path fill="#FFFFFF" fill-opacity="1" d=" M24.308000564575195,-3.5439999103546143 C24.308000564575195,-37.02399826049805 49.35100173950195,-65.34400177001953 83.93000030517578,-65.34400177001953 C109.37200164794922,-65.34400177001953 124.03600311279297,-52.106998443603516 124.03600311279297,-30.27199935913086 C124.03600311279297,-15.401000022888184 124.03600311279297,-19.530000686645508 124.03600311279297,-8.678999900817871 C124.03600311279297,16.10300064086914 109.74500274658203,54.426998138427734 69.49500274658203,58.917999267578125 C36.435001373291016,62.60599899291992 24.308000564575195,33.207000732421875 24.308000564575195,19.444000244140625 C24.308000564575195,19.444000244140625 24.308000564575195,-3.5439999103546143 24.308000564575195,-3.5439999103546143z"></path></g></g><g transform="matrix(0.998721718788147,-0.050498172640800476,0.050498172640800476,0.998721718788147,556.5086059570312,544.2831420898438)" opacity="1" style="display: none;"><path fill="#89E219" fill-opacity="1" d=" M102.75,45.75 C102.75,45.75 75.75,59 13,60.25 C22,68.25 47,71.25 65.5,71.25 C84,71.25 102.75,45.75 102.75,45.75z"></path></g><g mask="url(#__lottie_element_16_1)" style="display: block;"><g transform="matrix(0.9100000262260437,0,0,0.9100000262260437,552.07373046875,550.0657348632812)" opacity="1"><g opacity="1" transform="matrix(1,0,0,1,0,0)"><path fill="#4B4B4B" fill-opacity="1" d=" M373.0769958496094,-252.197998046875 C373.0769958496094,-252.197998046875 373.0769958496094,252.197998046875 373.0769958496094,252.197998046875 C373.0769958496094,252.197998046875 -373.0769958496094,252.197998046875 -373.0769958496094,252.197998046875 C-373.0769958496094,252.197998046875 -373.0769958496094,-252.197998046875 -373.0769958496094,-252.197998046875 C-373.0769958496094,-252.197998046875 373.0769958496094,-252.197998046875 373.0769958496094,-252.197998046875z"></path></g><g opacity="1" transform="matrix(1,0,0,1,0,0)"><path fill="#FFFFFF" fill-opacity="1" d=" M-104.85199737548828,-33.130001068115234 C-96.64099884033203,-33.130001068115234 -89.98400115966797,-26.472000122070312 -89.98400115966797,-18.26099967956543 C-89.98400115966797,-10.050000190734863 -96.64099884033203,-3.3929998874664307 -104.85199737548828,-3.3929998874664307 C-113.06300354003906,-3.3929998874664307 -119.72000122070312,-10.050000190734863 -119.72000122070312,-18.26099967956543 C-119.72000122070312,-26.472000122070312 -113.06300354003906,-33.130001068115234 -104.85199737548828,-33.130001068115234z"></path></g><g opacity="1" transform="matrix(1,0,0,1,0,0)"><path fill="#FFFFFF" fill-opacity="1" d=" M41.737998962402344,-33.130001068115234 C33.527000427246094,-33.130001068115234 26.8700008392334,-26.472000122070312 26.8700008392334,-18.26099967956543 C26.8700008392334,-10.050000190734863 33.527000427246094,-3.3929998874664307 41.737998962402344,-3.3929998874664307 C49.94900131225586,-3.3929998874664307 56.606998443603516,-10.050000190734863 56.606998443603516,-18.26099967956543 C56.606998443603516,-26.472000122070312 49.94900131225586,-33.130001068115234 41.737998962402344,-33.130001068115234z"></path></g></g></g><g transform="matrix(0.9100000262260437,0,0,0.9100000262260437,552,549.9993286132812)" opacity="1" style="display: block;"><g opacity="1" transform="matrix(1,0,0,1,0,0)"><path fill="#F49000" fill-opacity="1" d=" M-11.342000007629395,26.875 C3.246999979019165,26.875 15.072999954223633,38.70100021362305 15.072999954223633,53.290000915527344 C15.072999954223633,67.87899780273438 3.246999979019165,79.70500183105469 -11.342000007629395,79.70500183105469 C-25.930999755859375,79.70500183105469 -37.75699996948242,67.87899780273438 -37.75699996948242,53.290000915527344 C-37.75699996948242,38.70100021362305 -25.930999755859375,26.875 -11.342000007629395,26.875z"></path></g><g opacity="1" transform="matrix(1,0,0,1,0,0)"><path fill="#B06800" fill-opacity="1" d=" M-11.342000007629395,41.5 C-4.829999923706055,41.5 0.4480000138282776,46.77799987792969 0.4480000138282776,53.290000915527344 C0.4480000138282776,59.801998138427734 -4.829999923706055,65.08000183105469 -11.342000007629395,65.08000183105469 C-17.854000091552734,65.08000183105469 -23.131999969482422,59.801998138427734 -23.131999969482422,53.290000915527344 C-23.131999969482422,46.77799987792969 -17.854000091552734,41.5 -11.342000007629395,41.5z"></path></g><g opacity="1" transform="matrix(1,0,0,1,0,0)"><path fill="#FFC200" fill-opacity="1" d=" M23.288999557495117,48.382999420166016 C23.288999557495117,37.54800033569336 6.650000095367432,23.746999740600586 -11.149999618530273,23.746999740600586 C-31.91699981689453,23.746999740600586 -44.55699920654297,39.61199951171875 -44.55699920654297,48.382999420166016 C-44.55699920654297,53.67100143432617 -19.92099952697754,70.95500183105469 -11.149999618530273,70.95500183105469 C-2.378999948501587,70.95500183105469 23.288999557495117,51.22100067138672 23.288999557495117,48.382999420166016z"></path></g><g opacity="1" transform="matrix(1,0,0,1,0,0)"><path stroke-linecap="round" stroke-linejoin="miter" fill-opacity="0" stroke-miterlimit="4" stroke="#FFDE00" stroke-opacity="1" stroke-width="15.445px" d=" M-19.034000396728516,39.60599899291992 C-16.475000381469727,38.32600021362305 -9.890000343322754,36.53499984741211 -4.0269999504089355,39.60599899291992"></path></g></g></g></svg>